<svg id="Filled" height="512" viewBox="0 0 512 512" width="512" xmlns="http://www.w3.org/2000/svg"><path d="m264 24h-48v326.93a45.8 45.8 0 0 0 -24-6.93c-30.93 0-56 32.24-56 72s25.07 72 56 72 56-32.24 56-72v-112l32-24zm-72 432c-13.255 0-24-17.909-24-40s10.745-40 24-40 24 17.909 24 40-10.745 40-24 40z" fill="#cfd1d3"/><path d="m216 328v22.93a45.8 45.8 0 0 0 -24-6.93c-30.93 0-56 32.24-56 72s25.07 72 56 72 56-32.24 56-72v-88zm-24 128c-13.25 0-24-17.91-24-40s10.75-40 24-40 24 17.91 24 40-10.75 40-24 40z" fill="#e74444"/><path d="m423.514 280.318a56.032 56.032 0 0 0 -67.8-8.669 157.9 157.9 0 0 0 -73.679-19.32l-181.397-180.641-33.871 34.012 170.107 191.978 39.586-5.739q37.473-5.424 54.707 9.46a56 56 0 1 0 92.347-21.081zm-22.543 56.652a24 24 0 1 1 0-33.941 24 24 0 0 1 0 33.941z" fill="#e0e2e5"/><path d="m423.51 280.32a56.027 56.027 0 0 0 -67.8-8.67 158.439 158.439 0 0 0 -32.18-13.21l-14.24 33.22q13.4 2.4 21.88 9.74a56 56 0 1 0 92.34-21.08zm-22.54 56.65a24 24 0 1 1 0-33.94 24 24 0 0 1 0 33.94z" fill="#e74444"/><circle cx="248" cy="264" fill="#e0e2e5" r="8"/><path d="m192 368c-17.944 0-32 21.084-32 48s14.056 48 32 48 32-21.084 32-48-14.056-48-32-48zm0 80c-7.553 0-16-13.686-16-32s8.447-32 16-32 16 13.686 16 32-8.447 32-16 32z"/><path d="m100.638 63.688h-.017a8 8 0 0 0 -5.652 2.355l-33.869 34.012a8 8 0 0 0 -.32 10.951l147.22 166.15v61.344a52.2 52.2 0 0 0 -16-2.5c-35.29 0-64 35.888-64 80s28.71 80 64 80 64-35.888 64-80v-108l7.467-5.6-.334-.445 14.472-2.1c19.58-2.835 34.439-1.26 44.287 4.673a64 64 0 1 0 107.268-29.88 64.055 64.055 0 0 0 -73.485-12.06 164.458 164.458 0 0 0 -69.881-18.151l-13.81-220.937a8 8 0 0 0 -7.984-7.5h-48a8 8 0 0 0 -8 8v143.312l-101.717-101.293a8 8 0 0 0 -5.645-2.331zm139.362 352.312c0 35.29-21.533 64-48 64s-48-28.71-48-64 21.533-64 48-64a37.7 37.7 0 0 1 19.835 5.76 8 8 0 0 0 12.165-6.83v-14.93h16zm0-96h-16v-24.787l6.886 7.771a8 8 0 0 0 7.136 2.612l1.978-.287zm88.039-51.774a153.487 153.487 0 0 1 23.861 10.457 8 8 0 0 0 7.854-.129 48.037 48.037 0 0 1 58.115 7.433 48 48 0 1 1 -79.155 18.068 8 8 0 0 0 -2.315-8.707 48.245 48.245 0 0 0 -16.108-9.046zm-104.039-108.226h8a8 8 0 0 0 0-16h-8v-16h8a8 8 0 0 0 0-16h-8v-16h8a8 8 0 0 0 0-16h-8v-16h8a8 8 0 0 0 0-16h-8v-16h32.484l12.237 195.781-35.968-35.819a8 8 0 0 0 -.753-15.962h-8zm-117.623-48.726a8 8 0 0 0 11.313-.023l5.646-5.669 11.337 11.29-5.645 5.668a8 8 0 1 0 11.337 11.291l5.646-5.669 11.337 11.29-5.648 5.668a8 8 0 1 0 11.337 11.291l5.645-5.669 11.337 11.29-5.645 5.668a8 8 0 1 0 11.337 11.291l5.646-5.668 11.343 11.289-5.644 5.668a8 8 0 1 0 11.337 11.291l5.645-5.668 11.337 11.289-5.644 5.668a8 8 0 1 0 11.336 11.291l5.646-5.668 11.336 11.289-5.649 5.668a8 8 0 1 0 11.337 11.291l5.645-5.668 17.007 16.937a8 8 0 0 0 5.493 2.329 155.491 155.491 0 0 1 30.609 3.561l-8.174 19.07q-4.539-.443-9.471-.444a136.967 136.967 0 0 0 -19.534 1.507l-35.312 5.119-162.261-183.122 22.922-23.02 11.339 11.291-5.645 5.669a8 8 0 0 0 .022 11.314z"/><circle cx="248" cy="264" r="8"/><path d="m384 351.984a31.984 31.984 0 0 0 22.628-54.611 32 32 0 1 0 -22.628 54.611zm-11.314-43.3a16 16 0 1 1 0 22.627 15.948 15.948 0 0 1 0-22.624z"/></svg>